<svg width="16" height="16" viewBox="0 0 16 16" fill="none" xmlns="http://www.w3.org/2000/svg">
<path d="M6.25644 12.0183H0.75V10.1061C2.52471 9.1173 4.5233 8.60002 6.55488 8.60366C7.61751 8.60366 8.64737 8.74229 9.62805 9.00249M14.4085 12.0183H8.2622M14.4085 12.0183L11.6768 9.28659M14.4085 12.0183L11.6768 14.75M3.82317 3.65244C3.82317 4.42221 4.12896 5.16046 4.67328 5.70477C5.21759 6.24909 5.95584 6.55488 6.72561 6.55488C7.49538 6.55488 8.23363 6.24909 8.77794 5.70477C9.32226 5.16046 9.62805 4.42221 9.62805 3.65244C9.62805 2.88266 9.32226 2.14442 8.77794 1.6001C8.23363 1.05579 7.49538 0.75 6.72561 0.75C5.95584 0.75 5.21759 1.05579 4.67328 1.6001C4.12896 2.14442 3.82317 2.88266 3.82317 3.65244Z" stroke="#3C3C3C" stroke-width="1.5"/>
</svg>
