<svg width="14" height="18" viewBox="0 0 14 18" fill="none" xmlns="http://www.w3.org/2000/svg">
<path d="M0 18V6H2.57143V4.28571C2.57143 3.1 2.98943 2.08943 3.82543 1.254C4.66143 0.418572 5.672 0.000572014 6.85714 5.8508e-07C8.04229 -0.000570843 9.05314 0.417429 9.88972 1.254C10.7263 2.09057 11.144 3.10114 11.1429 4.28571V6H13.7143V18H0ZM8.06829 13.2111C8.40372 12.8751 8.57143 12.4714 8.57143 12C8.57143 11.5286 8.40372 11.1251 8.06829 10.7897C7.73286 10.4543 7.32914 10.2863 6.85714 10.2857C6.38514 10.2851 5.98172 10.4531 5.64686 10.7897C5.312 11.1263 5.144 11.5297 5.14286 12C5.14171 12.4703 5.30971 12.874 5.64686 13.2111C5.984 13.5483 6.38743 13.716 6.85714 13.7143C7.32686 13.7126 7.73057 13.5449 8.06829 13.2111ZM4.28571 6H9.42857V4.28571C9.42857 3.57143 9.17857 2.96429 8.67857 2.46429C8.17857 1.96429 7.57143 1.71429 6.85714 1.71429C6.14286 1.71429 5.53571 1.96429 5.03571 2.46429C4.53571 2.96429 4.28571 3.57143 4.28571 4.28571V6Z" fill="#3C3C3C"/>
</svg>
