<svg width="9" height="11" viewBox="0 0 9 11" fill="none" xmlns="http://www.w3.org/2000/svg">
<path d="M0 11V3.66667H1.57143V2.61905C1.57143 1.89444 1.82687 1.27687 2.33776 0.766334C2.84865 0.255794 3.46622 0.000349564 4.19048 3.57549e-07C4.91473 -0.000348849 5.53248 0.255096 6.04371 0.766334C6.55495 1.27757 6.81022 1.89514 6.80952 2.61905V3.66667H8.38095V11H0ZM4.93062 8.07348C5.1356 7.86814 5.2381 7.62143 5.2381 7.33333C5.2381 7.04524 5.1356 6.7987 4.93062 6.59372C4.72564 6.38873 4.47892 6.28606 4.19048 6.28572C3.90203 6.28537 3.65549 6.38803 3.45086 6.59372C3.24622 6.7994 3.14356 7.04594 3.14286 7.33333C3.14216 7.62073 3.24483 7.86745 3.45086 8.07348C3.65689 8.27951 3.90343 8.382 4.19048 8.38095C4.47752 8.37991 4.72424 8.27741 4.93062 8.07348ZM2.61905 3.66667H5.76191V2.61905C5.76191 2.18254 5.60913 1.81151 5.30357 1.50595C4.99802 1.2004 4.62698 1.04762 4.19048 1.04762C3.75397 1.04762 3.38294 1.2004 3.07738 1.50595C2.77183 1.81151 2.61905 2.18254 2.61905 2.61905V3.66667Z" fill="#B0B0B5"/>
</svg>
