<svg width="21" height="21" viewBox="0 0 21 21" fill="none" xmlns="http://www.w3.org/2000/svg">
<path d="M13.8595 13.7475L19.1625 19.0505M13.8595 13.7475C13.1658 14.4561 12.3385 15.0192 11.4254 15.4059C10.5123 15.7927 9.53157 15.9946 8.53994 15.9999C7.54832 16.0052 6.5655 15.8138 5.64834 15.4367C4.73118 15.0597 3.89789 14.5045 3.1967 13.8033C2.49551 13.1021 1.94033 12.2688 1.56329 11.3517C1.18624 10.4345 0.994825 9.45168 1.00011 8.46006C1.00539 7.46843 1.20726 6.4877 1.59405 5.57461C1.98084 4.66152 2.54487 3.8342 3.25349 3.14051C4.66503 1.75873 6.56469 0.989586 8.53994 1.00011C10.5152 1.01063 12.4066 1.79996 13.8033 3.1967C15.2 4.59344 15.9894 6.4848 15.9999 8.46006C16.0104 10.4353 15.2413 12.336 13.8595 13.7475Z" stroke="#242424" stroke-width="2" stroke-linecap="square"/>
</svg>
