<svg width="16" height="16" viewBox="0 0 16 16" fill="none" xmlns="http://www.w3.org/2000/svg">
<path d="M10.7238 10.637L14.8369 14.75M10.7238 10.637C10.1858 11.1866 9.54414 11.6233 8.83595 11.9233C8.12775 12.2233 7.36709 12.3798 6.59799 12.3839C5.82889 12.388 5.06661 12.2396 4.35526 11.9471C3.64391 11.6547 2.99761 11.2241 2.45376 10.6803C1.90992 10.1364 1.47932 9.49011 1.18688 8.77876C0.894451 8.06741 0.745986 7.30513 0.750083 6.53603C0.754179 5.76692 0.910754 5.00627 1.21075 4.29807C1.51074 3.58988 1.9482 2.94821 2.49781 2.41018C3.5926 1.33847 5.06598 0.741923 6.59799 0.750083C8.13 0.758242 9.59694 1.37045 10.6803 2.45376C11.7636 3.53707 12.3758 5.00402 12.3839 6.53603C12.3921 8.06804 11.7955 9.5422 10.7238 10.637Z" stroke="#B0B0B5" stroke-width="1.5" stroke-linecap="square"/>
</svg>
