<svg width="18" height="16" viewBox="0 0 18 16" fill="none" xmlns="http://www.w3.org/2000/svg">
<path d="M17.743 8.43641C17.8209 8.39309 17.8858 8.32973 17.931 8.2529C17.9762 8.17607 18 8.08855 18 7.99941C18 7.91027 17.9762 7.82275 17.931 7.74591C17.8858 7.66908 17.8209 7.60572 17.743 7.56241L15.461 6.29441C10.9639 3.79635 6.22328 1.76446 1.313 0.230406L0.648 0.0224059C0.57323 -0.000764469 0.494064 -0.0060554 0.416875 0.00695829C0.339687 0.019972 0.266632 0.0509267 0.203591 0.0973313C0.140551 0.143736 0.0892869 0.204294 0.0539255 0.27413C0.0185641 0.343965 9.34307e-05 0.421128 4.5814e-07 0.499406V6.24941C-0.000173012 6.37763 0.0489217 6.50102 0.137138 6.59408C0.225355 6.68713 0.34595 6.74274 0.474 6.74941L1.484 6.80241C3.94548 6.93148 6.39193 7.2653 8.798 7.80041L9.036 7.85341C9.089 7.86441 9.112 7.88641 9.125 7.90341C9.1447 7.93147 9.15487 7.96513 9.154 7.99941C9.154 8.03941 9.141 8.07341 9.125 8.09541C9.112 8.11241 9.089 8.13441 9.036 8.14541L8.798 8.19841C6.39155 8.73345 3.9448 9.0676 1.483 9.19741L0.473 9.25041C0.3453 9.25731 0.225099 9.31289 0.13712 9.4057C0.0491398 9.49852 6.9638e-05 9.62152 4.5814e-07 9.74941V15.4994C-4.31507e-06 15.5779 0.018478 15.6553 0.053951 15.7254C0.089424 15.7954 0.140891 15.8561 0.204184 15.9025C0.267478 15.949 0.34082 15.9799 0.418272 15.9927C0.495723 16.0055 0.575109 16 0.650001 15.9764L1.314 15.7684C6.22393 14.2343 10.9642 12.2024 15.461 9.70441L17.743 8.43641Z" fill="#3C3C3C"/>
</svg>
