<svg width="112" height="32" viewBox="0 0 112 32" fill="none" xmlns="http://www.w3.org/2000/svg" role="img" aria-label="음악의 신">
  <rect x="0.5" y="0.5" width="111" height="31" rx="15.5" fill="#FFF7D8"/>
  <rect x="0.5" y="0.5" width="111" height="31" rx="15.5" stroke="#F2C94C"/>
  <rect x="4" y="4" width="104" height="24" rx="12" fill="#FFB800"/>
  <path d="M8 16C13.4 6.8 26.5 5.25 36 11.42C49.7 20.32 60.8 20.32 74.5 11.42C84 5.25 98.6 6.8 104 16C98.6 25.2 84 26.75 74.5 20.58C60.8 11.68 49.7 11.68 36 20.58C26.5 26.75 13.4 25.2 8 16Z" fill="#FFE88A" fill-opacity="0.5"/>
  <path d="M24 8.75V19.1C23.43 18.77 22.71 18.58 21.93 18.58C20.08 18.58 18.58 19.65 18.58 20.98C18.58 22.3 20.08 23.38 21.93 23.38C23.78 23.38 25.28 22.3 25.28 20.98V13.05L30.25 14.34V17.72C29.69 17.39 28.96 17.2 28.18 17.2C26.33 17.2 24.83 18.27 24.83 19.6C24.83 20.92 26.33 22 28.18 22C30.03 22 31.53 20.92 31.53 19.6V11.2L24 8.75Z" fill="#5B3A00"/>
  <path d="M14.8 12.68L16 9.88L17.2 12.68L20 13.88L17.2 15.08L16 17.88L14.8 15.08L12 13.88L14.8 12.68Z" fill="#FFFFFF"/>
  <path d="M95.2 12.68L96 10.8L96.8 12.68L98.68 13.48L96.8 14.28L96 16.16L95.2 14.28L93.32 13.48L95.2 12.68Z" fill="#FFFFFF"/>
  <text x="58" y="21" text-anchor="middle" fill="#4A2B00" font-family="Pretendard, -apple-system, BlinkMacSystemFont, 'Segoe UI', sans-serif" font-size="14" font-weight="800" letter-spacing="0">음악의 신</text>
</svg>
