<svg width="14" height="14" viewBox="0 0 14 14" fill="none" xmlns="http://www.w3.org/2000/svg">
<mask id="path-1-inside-1_3530_2805" fill="white">
<path d="M1.5 3H0.5C0.367392 3 0.240215 2.94732 0.146447 2.85355C0.0526784 2.75979 0 2.63261 0 2.5C0 2.36739 0.0526784 2.24021 0.146447 2.14645C0.240215 2.05268 0.367392 2 0.5 2H4.5V0.5C4.5 0.367392 4.55268 0.240215 4.64645 0.146447C4.74021 0.0526784 4.86739 0 5 0H9C9.13261 0 9.25979 0.0526784 9.35355 0.146447C9.44732 0.240215 9.5 0.367392 9.5 0.5V2H13.5C13.6326 2 13.7598 2.05268 13.8536 2.14645C13.9473 2.24021 14 2.36739 14 2.5C14 2.63261 13.9473 2.75979 13.8536 2.85355C13.7598 2.94732 13.6326 3 13.5 3H12.5V13.5C12.5 13.6326 12.4473 13.7598 12.3536 13.8536C12.2598 13.9473 12.1326 14 12 14H2C1.86739 14 1.74021 13.9473 1.64645 13.8536C1.55268 13.7598 1.5 13.6326 1.5 13.5V3ZM8.5 2V1H5.5V2H8.5ZM2.5 13H11.5V3H2.5V13ZM5.5 11C5.36739 11 5.24021 10.9473 5.14645 10.8536C5.05268 10.7598 5 10.6326 5 10.5V5.5C5 5.36739 5.05268 5.24021 5.14645 5.14645C5.24021 5.05268 5.36739 5 5.5 5C5.63261 5 5.75979 5.05268 5.85355 5.14645C5.94732 5.24021 6 5.36739 6 5.5V10.5C6 10.6326 5.94732 10.7598 5.85355 10.8536C5.75979 10.9473 5.63261 11 5.5 11ZM8.5 11C8.36739 11 8.24021 10.9473 8.14645 10.8536C8.05268 10.7598 8 10.6326 8 10.5V5.5C8 5.36739 8.05268 5.24021 8.14645 5.14645C8.24021 5.05268 8.36739 5 8.5 5C8.63261 5 8.75979 5.05268 8.85355 5.14645C8.94732 5.24021 9 5.36739 9 5.5V10.5C9 10.6326 8.94732 10.7598 8.85355 10.8536C8.75979 10.9473 8.63261 11 8.5 11Z"/>
</mask>
<path d="M1.5 3H2.5V2H1.5V3ZM0 2.5H-1H0ZM0.5 2V3V2ZM4.5 2V3H5.5V2H4.5ZM5 0V-1V0ZM9 0V-1V0ZM9.5 2H8.5V3H9.5V2ZM12.5 3V2H11.5V3H12.5ZM8.5 2V3H9.5V2H8.5ZM8.5 1H9.5V0H8.5V1ZM5.5 1V0H4.5V1H5.5ZM5.5 2H4.5V3H5.5V2ZM2.5 13H1.5V14H2.5V13ZM11.5 13V14H12.5V13H11.5ZM11.5 3H12.5V2H11.5V3ZM2.5 3V2H1.5V3H2.5ZM1.5 3V2H0.5V3V4H1.5V3ZM0.5 3V2C0.632609 2 0.759785 2.05268 0.853553 2.14645L0.146447 2.85355L-0.56066 3.56066C-0.279356 3.84196 0.102175 4 0.5 4V3ZM0.146447 2.85355L0.853553 2.14645C0.947321 2.24021 1 2.36739 1 2.5H0H-1C-1 2.89782 -0.841965 3.27936 -0.56066 3.56066L0.146447 2.85355ZM0 2.5H1C1 2.63261 0.947321 2.75979 0.853553 2.85355L0.146447 2.14645L-0.56066 1.43934C-0.841965 1.72064 -1 2.10218 -1 2.5H0ZM0.146447 2.14645L0.853553 2.85355C0.759785 2.94732 0.632609 3 0.5 3V2V1C0.102175 1 -0.279356 1.15804 -0.56066 1.43934L0.146447 2.14645ZM0.5 2V3H4.5V2V1H0.5V2ZM4.5 2H5.5V0.5H4.5H3.5V2H4.5ZM4.5 0.5H5.5C5.5 0.632609 5.44732 0.759785 5.35355 0.853553L4.64645 0.146447L3.93934 -0.56066C3.65804 -0.279356 3.5 0.102175 3.5 0.5H4.5ZM4.64645 0.146447L5.35355 0.853553C5.25979 0.947321 5.13261 1 5 1V0V-1C4.60218 -1 4.22064 -0.841965 3.93934 -0.56066L4.64645 0.146447ZM5 0V1H9V0V-1H5V0ZM9 0V1C8.86739 1 8.74022 0.947322 8.64645 0.853553L9.35355 0.146447L10.0607 -0.56066C9.77936 -0.841965 9.39782 -1 9 -1V0ZM9.35355 0.146447L8.64645 0.853553C8.55268 0.759784 8.5 0.632606 8.5 0.5H9.5H10.5C10.5 0.102177 10.342 -0.279354 10.0607 -0.56066L9.35355 0.146447ZM9.5 0.5H8.5V2H9.5H10.5V0.5H9.5ZM9.5 2V3H13.5V2V1H9.5V2ZM13.5 2V3C13.3674 3 13.2402 2.94732 13.1464 2.85355L13.8536 2.14645L14.5607 1.43934C14.2794 1.15804 13.8978 1 13.5 1V2ZM13.8536 2.14645L13.1464 2.85355C13.0527 2.75978 13 2.63261 13 2.5H14H15C15 2.10218 14.842 1.72065 14.5607 1.43934L13.8536 2.14645ZM14 2.5H13C13 2.36739 13.0527 2.24022 13.1464 2.14645L13.8536 2.85355L14.5607 3.56066C14.842 3.27935 15 2.89782 15 2.5H14ZM13.8536 2.85355L13.1464 2.14645C13.2402 2.05268 13.3674 2 13.5 2V3V4C13.8978 4 14.2794 3.84196 14.5607 3.56066L13.8536 2.85355ZM13.5 3V2H12.5V3V4H13.5V3ZM12.5 3H11.5V13.5H12.5H13.5V3H12.5ZM12.5 13.5H11.5C11.5 13.3674 11.5527 13.2402 11.6464 13.1464L12.3536 13.8536L13.0607 14.5607C13.342 14.2794 13.5 13.8978 13.5 13.5H12.5ZM12.3536 13.8536L11.6464 13.1464C11.7402 13.0527 11.8674 13 12 13V14V15C12.3978 15 12.7794 14.842 13.0607 14.5607L12.3536 13.8536ZM12 14V13H2V14V15H12V14ZM2 14V13C2.13261 13 2.25978 13.0527 2.35355 13.1464L1.64645 13.8536L0.93934 14.5607C1.22065 14.842 1.60218 15 2 15V14ZM1.64645 13.8536L2.35355 13.1464C2.44732 13.2402 2.5 13.3674 2.5 13.5H1.5H0.5C0.5 13.8978 0.658035 14.2794 0.93934 14.5607L1.64645 13.8536ZM1.5 13.5H2.5V3H1.5H0.5V13.5H1.5ZM8.5 2H9.5V1H8.5H7.5V2H8.5ZM8.5 1V0H5.5V1V2H8.5V1ZM5.5 1H4.5V2H5.5H6.5V1H5.5ZM5.5 2V3H8.5V2V1H5.5V2ZM2.5 13V14H11.5V13V12H2.5V13ZM11.5 13H12.5V3H11.5H10.5V13H11.5ZM11.5 3V2H2.5V3V4H11.5V3ZM2.5 3H1.5V13H2.5H3.5V3H2.5ZM5.5 11V10C5.63261 10 5.75978 10.0527 5.85355 10.1464L5.14645 10.8536L4.43934 11.5607C4.72065 11.842 5.10218 12 5.5 12V11ZM5.14645 10.8536L5.85355 10.1464C5.94732 10.2402 6 10.3674 6 10.5H5H4C4 10.8978 4.15804 11.2794 4.43934 11.5607L5.14645 10.8536ZM5 10.5H6V5.5H5H4V10.5H5ZM5 5.5H6C6 5.63261 5.94732 5.75979 5.85355 5.85355L5.14645 5.14645L4.43934 4.43934C4.15804 4.72064 4 5.10217 4 5.5H5ZM5.14645 5.14645L5.85355 5.85355C5.75979 5.94732 5.63261 6 5.5 6V5V4C5.10217 4 4.72064 4.15804 4.43934 4.43934L5.14645 5.14645ZM5.5 5V6C5.36739 6 5.24021 5.94732 5.14645 5.85355L5.85355 5.14645L6.56066 4.43934C6.27936 4.15804 5.89783 4 5.5 4V5ZM5.85355 5.14645L5.14645 5.85355C5.05268 5.75979 5 5.63261 5 5.5H6H7C7 5.10217 6.84196 4.72064 6.56066 4.43934L5.85355 5.14645ZM6 5.5H5V10.5H6H7V5.5H6ZM6 10.5H5C5 10.3674 5.05268 10.2402 5.14645 10.1464L5.85355 10.8536L6.56066 11.5607C6.84196 11.2794 7 10.8978 7 10.5H6ZM5.85355 10.8536L5.14645 10.1464C5.24022 10.0527 5.36739 10 5.5 10V11V12C5.89782 12 6.27935 11.842 6.56066 11.5607L5.85355 10.8536ZM8.5 11V10C8.63261 10 8.75978 10.0527 8.85355 10.1464L8.14645 10.8536L7.43934 11.5607C7.72065 11.842 8.10218 12 8.5 12V11ZM8.14645 10.8536L8.85355 10.1464C8.94732 10.2402 9 10.3674 9 10.5H8H7C7 10.8978 7.15803 11.2794 7.43934 11.5607L8.14645 10.8536ZM8 10.5H9V5.5H8H7V10.5H8ZM8 5.5H9C9 5.63261 8.94732 5.75978 8.85355 5.85355L8.14645 5.14645L7.43934 4.43934C7.15803 4.72065 7 5.10218 7 5.5H8ZM8.14645 5.14645L8.85355 5.85355C8.75978 5.94732 8.63261 6 8.5 6V5V4C8.10218 4 7.72064 4.15804 7.43934 4.43934L8.14645 5.14645ZM8.5 5V6C8.36739 6 8.24022 5.94732 8.14645 5.85355L8.85355 5.14645L9.56066 4.43934C9.27936 4.15804 8.89782 4 8.5 4V5ZM8.85355 5.14645L8.14645 5.85355C8.05268 5.75978 8 5.63261 8 5.5H9H10C10 5.10218 9.84197 4.72065 9.56066 4.43934L8.85355 5.14645ZM9 5.5H8V10.5H9H10V5.5H9ZM9 10.5H8C8 10.3674 8.05268 10.2402 8.14645 10.1464L8.85355 10.8536L9.56066 11.5607C9.84197 11.2794 10 10.8978 10 10.5H9ZM8.85355 10.8536L8.14645 10.1464C8.24022 10.0527 8.36739 10 8.5 10V11V12C8.89782 12 9.27935 11.842 9.56066 11.5607L8.85355 10.8536Z" fill="#FAFAFA" mask="url(#path-1-inside-1_3530_2805)"/>
</svg>
